<?xml version="1.0" standalone="no"?>
<!DOCTYPE svg PUBLIC "-//W3C//DTD SVG 20010904//EN"
 "http://www.w3.org/TR/2001/REC-SVG-20010904/DTD/svg10.dtd">
<svg version="1.0" xmlns="http://www.w3.org/2000/svg"
 width="500.000000pt" height="500.000000pt" viewBox="0 0 500.000000 500.000000"
 preserveAspectRatio="xMidYMid meet">

<g transform="translate(0.000000,500.000000) scale(0.100000,-0.100000)"
fill="#000000" stroke="none">
<path d="M0 2500 l0 -2500 2500 0 2500 0 0 2500 0 2500 -2500 0 -2500 0 0
-2500z m2031 -191 c16 -30 6 -83 -50 -260 -59 -185 -73 -256 -69 -329 l3 -55
112 226 c61 124 119 231 128 239 32 26 38 -1 25 -117 -16 -145 -11 -266 12
-290 40 -39 112 30 158 153 32 86 81 288 83 344 3 74 22 54 21 -21 -3 -139
-97 -410 -165 -478 -38 -39 -69 -39 -111 -2 l-33 29 0 114 c0 62 3 140 7 173
7 59 6 58 -96 -148 -56 -114 -112 -217 -124 -230 -23 -22 -23 -22 -38 -3 -21
30 -18 156 7 246 11 41 38 131 60 200 26 79 37 126 30 128 -22 7 -4 102 18
102 6 0 15 -10 22 -21z m535 -313 c7 -19 -31 -92 -51 -100 -9 -3 -25 -6 -36
-6 -14 0 -19 -7 -19 -29 0 -34 14 -41 55 -30 41 12 128 80 131 103 4 30 26 76
35 76 5 0 9 -11 9 -25 0 -23 2 -24 21 -15 36 20 43 5 7 -17 -27 -16 -40 -34
-57 -82 -23 -60 -47 -74 -39 -21 l4 27 -44 -34 c-46 -35 -106 -45 -130 -21
-40 40 27 188 84 188 13 0 27 -6 30 -14z m366 -78 c-4 -90 5 -97 67 -51 l36
26 -34 -36 c-19 -21 -41 -37 -47 -37 -21 0 -44 42 -44 82 0 21 -4 38 -9 38 -5
0 -14 12 -19 28 l-9 27 -35 -37 c-20 -20 -41 -52 -47 -70 l-11 -33 40 45 c49
56 52 42 4 -23 -54 -74 -86 -41 -43 45 36 71 46 79 103 76 l51 -3 -3 -77z"/>
<path d="M2001 2254 c0 -11 3 -14 6 -6 3 7 2 16 -1 19 -3 4 -6 -2 -5 -13z"/>
<path d="M2513 1968 c-26 -29 -46 -68 -35 -68 11 0 46 39 61 68 6 12 8 22 3
22 -5 0 -18 -10 -29 -22z"/>
<path d="M2911 1964 c0 -11 3 -14 6 -6 3 7 2 16 -1 19 -3 4 -6 -2 -5 -13z"/>
</g>
</svg>
